<?xml version="1.0" encoding="utf-8"?>
<!-- Generated by IcoMoon.io -->
<!DOCTYPE svg PUBLIC "-//W3C//DTD SVG 1.1//EN" "http://www.w3.org/Graphics/SVG/1.1/DTD/svg11.dtd">
<svg version="1.1" xmlns="http://www.w3.org/2000/svg" xmlns:xlink="http://www.w3.org/1999/xlink" width="512" height="512" viewBox="0 0 512 512">
<g>
</g>
	<path d="M418.202 327.721h-269.127l15.001 15.002v-166.983l-15.001 14.981h334.469l-13.988-20.47-65.321 167.014 13.967-9.543zM483.543 160.738h-349.491v196.987h294.421l3.728-9.523 73.298-187.464h-21.954z" fill="#000000" />
	<path d="M6.503 53.238l77.639 64.072-5.468-11.643-1.168 288.625-0.041 15.074h298.209v-30.014h-283.136l15.001 15.053 1.157-288.594 0.010-7.117-5.458-4.526-77.609-64.082z" fill="#000000" />
	<path d="M149.637 446.413c0 8.55-6.963 15.493-15.493 15.493s-15.493-6.942-15.493-15.493 6.963-15.514 15.493-15.514 15.493 6.963 15.493 15.514zM169.646 446.413c0-19.589-15.923-35.512-35.502-35.512s-35.492 15.923-35.492 35.512 15.913 35.502 35.492 35.502 35.502-15.913 35.502-35.502z" fill="#000000" />
	<path d="M304.548 444.16c0 8.571-6.963 15.514-15.514 15.514s-15.493-6.942-15.493-15.514c0-8.55 6.942-15.493 15.493-15.493s15.514 6.942 15.514 15.493zM324.546 444.16c0-19.569-15.923-35.522-35.512-35.522-19.579 0-35.512 15.954-35.512 35.522 0 19.589 15.933 35.522 35.512 35.522 19.599 0 35.512-15.933 35.512-35.522z" fill="#000000" />
</svg>
